<?xml version="1.0" encoding="iso-8859-1"?>
<!-- Generator: Adobe Illustrator 19.0.0, SVG Export Plug-In . SVG Version: 6.00 Build 0)  -->
<svg version="1.1" id="Layer_1" xmlns="http://www.w3.org/2000/svg" xmlns:xlink="http://www.w3.org/1999/xlink" x="0px" y="0px"
	 viewBox="0 0 512 512" style="enable-background:new 0 0 512 512;" xml:space="preserve">
<g>
	<g>
		<path d="M471.432,180.267l-36.18-150.664h-80.134V0H156.882v29.604H76.746l-36.18,150.664H0.015v92.412h511.97v-92.413H471.432z
			 M74.905,180.268l28.161-117.274h53.815v29.603h198.237V62.993h53.815l28.162,117.274H74.905z"/>
	</g>
</g>
<g>
	<g>
		<path d="M40.027,306.069L81.011,512h349.977l40.984-205.931H40.027z M147.092,466.254l-22.592-113.518l32.748-6.518
			l22.592,113.519L147.092,466.254z M272.695,464.107h-33.389V348.365h33.389V464.107z M364.907,466.254l-32.748-6.517
			l22.592-113.519l32.748,6.516L364.907,466.254z"/>
	</g>
</g>
<g>
</g>
<g>
</g>
<g>
</g>
<g>
</g>
<g>
</g>
<g>
</g>
<g>
</g>
<g>
</g>
<g>
</g>
<g>
</g>
<g>
</g>
<g>
</g>
<g>
</g>
<g>
</g>
<g>
</g>
</svg>
